<svg width="22" height="22" viewBox="0 0 14 14" fill="none" xmlns="http://www.w3.org/2000/svg">
  <g clip-path="url(#clip0_5_4)">
    <path
      d="M0.875 6.125H6.125V0.875H0.875V6.125ZM2.625 2.625H4.375V4.375H2.625V2.625ZM7.875 0.875V6.125H13.125V0.875H7.875ZM11.375 4.375H9.625V2.625H11.375V4.375ZM0.875 13.125H6.125V7.875H0.875V13.125ZM2.625 9.625H4.375V11.375H2.625V9.625ZM12.25 7.875H13.125V11.375H10.5V10.5H9.625V13.125H7.875V7.875H10.5V8.75H12.25V7.875ZM12.25 12.25H13.125V13.125H12.25V12.25ZM10.5 12.25H11.375V13.125H10.5V12.25Z"
      fill="white" />
  </g>
  <defs>
    <clipPath id="clip0_5_4">
      <rect width="14" height="14" fill="white" />
    </clipPath>
  </defs>
</svg>